Coordinates
version=1
nRows=6
nColumns=63
inDegrees=yes

Units are S.I. units (second, meters, Newtons, ...)
If the header above contains a line with 'inDegrees', this indicates whether rotational values are in degrees (yes) or radians (no).

endheader
time	pelvis_tilt	pelvis_list	pelvis_rotation	pelvis_tx	pelvis_ty	pelvis_tz	hip_flexion_r	hip_adduction_r	hip_rotation_r	knee_angle_r	knee_angle_r_beta	ankle_angle_r	subtalar_angle_r	mtp_angle_r	hip_flexion_l	hip_adduction_l	hip_rotation_l	knee_angle_l	knee_angle_l_beta	ankle_angle_l	subtalar_angle_l	mtp_angle_l	L5_S1_Flex_Ext	L5_S1_Lat_Bending	L5_S1_axial_rotation	L4_L5_Flex_Ext	L4_L5_Lat_Bending	L4_L5_axial_rotation	L3_L4_Flex_Ext	L3_L4_Lat_Bending	L3_L4_axial_rotation	L2_L3_Flex_Ext	L2_L3_Lat_Bending	L2_L3_axial_rotation	L1_L2_Flex_Ext	L1_L2_Lat_Bending	L1_L2_axial_rotation	L1_T12_Flex_Ext	L1_T12_Lat_Bending	L1_T12_axial_rotation	Abs_r3	Abs_r2	Abs_r1	Abs_t1	Abs_t2	neck_flexion	neck_bending	neck_rotation	arm_flex_r	arm_add_r	arm_rot_r	elbow_flex_r	pro_sup_r	wrist_flex_r	wrist_dev_r	arm_flex_l	arm_add_l	arm_rot_l	elbow_flex_l	pro_sup_l	wrist_flex_l	wrist_dev_l
      0.03333333	      4.68259460	     -1.86602201	    174.72166475	      2.54194697	      0.88671208	      0.72574376	     13.49710317	     -1.34664141	     -1.74261099	     22.89027806	      0.39951072	     20.08105634	    -12.47222121	      0.00000000	      7.11335320	     -1.17028633	     -3.32904440	     13.62395405	      0.23778286	     15.45727210	    -18.39094205	      0.00000000	      0.00183204	     -0.42799486	      0.04832699	      0.00340229	     -0.56923316	      0.05134743	      0.00300987	     -1.04062670	      0.05134743	      0.00209384	     -1.04062670	      0.04228612	      0.00170124	     -0.87276711	      0.03926568	      0.00104683	     -0.66296403	      0.03624524	      0.01308611	     -4.84156342	      0.26878022	      0.00000000	      0.00000000	     -0.00000000	      0.00000000	      0.00000000	      3.13398339	     -9.20577484	     71.86163240	     21.91856621	     47.32696729	      0.00000000	      5.17790882	    -11.20549246	    -13.62783258	     20.60513231	     26.55511498	     56.03267982	      0.00000000	      5.17790882
      0.06666667	      5.14174701	     -2.12018891	    173.83761739	      2.54451981	      0.88713034	      0.73221309	     15.23947440	     -2.22762536	     -2.39657419	     24.53660605	      0.42824456	     21.11968595	    -10.76075397	      0.00000000	      8.35400391	     -0.71917941	     -5.67092104	     14.93754344	      0.26070932	     15.13161076	    -17.90343738	      0.00000000	     -0.00061750	     -0.40160396	      0.05504663	     -0.00114677	     -0.53413327	      0.05848704	     -0.00101450	     -0.97645988	      0.05848704	     -0.00070575	     -0.97645988	      0.04816580	     -0.00057341	     -0.81895080	      0.04472539	     -0.00035284	     -0.62208454	      0.04128497	     -0.00441077	     -4.54302435	      0.30615283	      0.00000000	      0.00000000	     -0.00000000	      0.00000000	      0.00000000	      4.13143089	    -10.70800483	     71.29924991	     21.28278142	     47.24528720	      0.00000000	      5.17118357	    -11.32370134	    -12.23267310	     19.59955637	     25.99477188	     55.80764007	      0.00000000	      5.17118357
      0.10000000	      5.56425349	     -2.33597139	    173.35640360	      2.54604060	      0.88738437	      0.73842307	     16.56418315	     -3.84882805	     -6.54539550	     25.89130746	      0.45188856	     23.22834149	     -3.96589143	      0.00000000	      9.12072188	     -0.28091878	     -7.82774029	     15.36132423	      0.26810569	     14.78510265	    -17.03450120	      0.00000000	     -0.00029850	     -0.38172867	     -0.02852238	     -0.00055435	     -0.50769913	     -0.03030503	     -0.00049041	     -0.92813508	     -0.03030503	     -0.00034116	     -0.92813508	     -0.02495709	     -0.00027719	     -0.77842110	     -0.02317444	     -0.00017056	     -0.59129771	     -0.02139179	     -0.00213217	     -4.31819104	     -0.15863295	      0.00000000	      0.00000000	     -0.00000000	      0.00000000	      0.00000000	      4.63349651	    -11.96209253	     68.51281023	     21.04371936	     46.89446629	      0.00000000	      5.14218676	    -12.38329004	    -10.07166033	     12.95074919	     26.40889040	     54.60584496	      0.00000000	      5.14218676
      0.13333333	      5.92227793	     -2.27960929	    173.17584073	      2.54689275	      0.88759049	      0.74260115	     17.29830615	     -4.10750649	     -6.46184413	     26.25699045	      0.45827094	     23.28807490	     -3.73803773	      0.00000000	      9.58429944	     -0.10826409	     -8.85729575	     15.31061212	      0.26722059	     14.26758360	    -17.20192368	      0.00000000	      0.00074150	     -0.34940248	     -0.15743789	      0.00137704	     -0.46470530	     -0.16727776	      0.00121821	     -0.84953719	     -0.16727776	      0.00084746	     -0.84953719	     -0.13775815	      0.00068856	     -0.71250154	     -0.12791829	      0.00042369	     -0.54122444	     -0.11807842	      0.00529645	     -3.95251074	     -0.87562232	      0.00000000	      0.00000000	     -0.00000000	      0.00000000	      0.00000000	      5.33743184	    -12.80250781	     68.25067283	     20.73483067	     46.85696204	      0.00000000	      5.14134918	    -12.74165845	     -9.35577563	     12.89592714	     26.35585426	     54.59641522	      0.00000000	      5.14134918
      0.16666667	      6.15714558	     -2.53625210	    172.33927339	      2.54746423	      0.88732565	      0.74451834	     18.33784410	     -4.92743835	     -7.57432333	     27.46369509	      0.47933190	     24.04812548	     -0.61356428	      0.00000000	      9.91690265	      0.07776449	    -11.20986902	     15.36415372	      0.26815507	     14.35859062	    -16.18434883	      0.00000000	     -0.00172294	     -0.36745332	     -0.11660686	     -0.00319967	     -0.48871291	     -0.12389479	     -0.00283062	     -0.89342600	     -0.12389479	     -0.00196915	     -0.89342600	     -0.10203101	     -0.00159992	     -0.74931081	     -0.09474308	     -0.00098449	     -0.56918519	     -0.08745515	     -0.01230678	     -4.15670544	     -0.64853239	      0.00000000	      0.00000000	     -0.00000000	      0.00000000	      0.00000000	      4.71401369	    -13.05061356	     61.49396763	     21.18677219	     49.02235661	      0.00000000	      5.03071199	    -13.69621683	     -7.65886363	      5.45565790	     27.12815829	     56.60472421	      0.00000000	      5.03071199
      0.20000000	      6.23292859	     -2.58405204	    172.18120784	      2.54739968	      0.88732747	      0.74517988	     18.57108260	     -5.00228070	     -6.98809931	     27.60913901	      0.48187038	     23.96221364	     -0.70413173	      0.00000000	     10.09579368	      0.12388936	    -11.75608326	     15.43415488	      0.26937682	     14.20790129	    -16.25172791	      0.00000000	     -0.00195010	     -0.37028000	     -0.14937348	     -0.00362153	     -0.49247241	     -0.15870932	     -0.00320382	     -0.90029880	     -0.15870932	     -0.00222877	     -0.90029880	     -0.13070179	     -0.00181086	     -0.75507499	     -0.12136595	     -0.00111429	     -0.57356373	     -0.11203011	     -0.01392938	     -4.18868147	     -0.83077046	      0.00000000	      0.00000000	     -0.00000000	      0.00000000	      0.00000000	      4.73786073	    -13.11726702	     60.47232362	     21.21602813	     49.53143554	      0.00000000	      5.02295264	    -14.01445978	     -7.28503837	      4.13072768	     27.29502831	     56.20990391	      0.00000000	      5.02295264
